<svg width="214" height="81" viewBox="0 0 214 81" fill="none" xmlns="http://www.w3.org/2000/svg">
<path d="M19.44 37.8H30.624C30.336 39.112 29.872 40.344 29.232 41.496C28.624 42.648 27.84 43.672 26.88 44.568C25.92 45.464 24.768 46.168 23.424 46.68C22.112 47.16 20.624 47.4 18.96 47.4C16.592 47.4 14.448 46.84 12.528 45.72C10.608 44.6 9.072 43.048 7.92 41.064C6.8 39.08 6.24 36.792 6.24 34.2C6.24 31.576 6.8 29.288 7.92 27.336C9.072 25.352 10.608 23.8 12.528 22.68C14.448 21.56 16.592 21 18.96 21C21.52 21 23.744 21.512 25.632 22.536C27.52 23.528 28.992 24.92 30.048 26.712L32.928 24.072C31.968 22.504 30.784 21.192 29.376 20.136C28 19.08 26.432 18.28 24.672 17.736C22.944 17.192 21.04 16.92 18.96 16.92C16.528 16.92 14.272 17.352 12.192 18.216C10.112 19.048 8.304 20.248 6.768 21.816C5.232 23.352 4.032 25.176 3.168 27.288C2.336 29.4 1.92 31.704 1.92 34.2C1.92 36.696 2.336 39 3.168 41.112C4.032 43.224 5.232 45.064 6.768 46.632C8.304 48.168 10.112 49.368 12.192 50.232C14.272 51.064 16.528 51.48 18.96 51.48C21.52 51.48 23.792 51.016 25.776 50.088C27.792 49.128 29.488 47.832 30.864 46.2C32.24 44.568 33.28 42.712 33.984 40.632C34.688 38.52 35.04 36.296 35.04 33.96H19.44V37.8ZM56.6588 37.8H67.8428C67.5548 39.112 67.0908 40.344 66.4508 41.496C65.8428 42.648 65.0588 43.672 64.0988 44.568C63.1388 45.464 61.9868 46.168 60.6428 46.68C59.3308 47.16 57.8428 47.4 56.1788 47.4C53.8108 47.4 51.6668 46.84 49.7468 45.72C47.8268 44.6 46.2908 43.048 45.1388 41.064C44.0188 39.08 43.4588 36.792 43.4588 34.2C43.4588 31.576 44.0188 29.288 45.1388 27.336C46.2908 25.352 47.8268 23.8 49.7468 22.68C51.6668 21.56 53.8108 21 56.1788 21C58.7388 21 60.9628 21.512 62.8508 22.536C64.7388 23.528 66.2108 24.92 67.2668 26.712L70.1468 24.072C69.1868 22.504 68.0028 21.192 66.5948 20.136C65.2188 19.08 63.6508 18.28 61.8907 17.736C60.1628 17.192 58.2588 16.92 56.1788 16.92C53.7468 16.92 51.4908 17.352 49.4108 18.216C47.3308 19.048 45.5228 20.248 43.9868 21.816C42.4508 23.352 41.2508 25.176 40.3867 27.288C39.5548 29.4 39.1388 31.704 39.1388 34.2C39.1388 36.696 39.5548 39 40.3867 41.112C41.2508 43.224 42.4508 45.064 43.9868 46.632C45.5228 48.168 47.3308 49.368 49.4108 50.232C51.4908 51.064 53.7468 51.48 56.1788 51.48C58.7388 51.48 61.0108 51.016 62.9948 50.088C65.0108 49.128 66.7068 47.832 68.0828 46.2C69.4588 44.568 70.4988 42.712 71.2028 40.632C71.9068 38.52 72.2588 36.296 72.2588 33.96H56.6588V37.8ZM80.5335 34.68H103.574V30.84H80.5335V34.68ZM100.838 17.4V51H104.918V17.4H100.838ZM78.2775 17.4V51H82.3575V17.4H78.2775Z" fill="#1B1B1B"/>
<path d="M75.912 58.704L81.816 70.056L87.72 58.704L89.16 72H90.48L88.536 54.552L81.816 67.464L75.096 54.552L73.152 72H74.472L75.912 58.704ZM93.7286 68.688C93.7286 68.128 93.8566 67.672 94.1126 67.32C94.3686 66.968 94.7206 66.704 95.1686 66.528C95.6326 66.352 96.1766 66.264 96.8006 66.264C97.4726 66.264 98.1126 66.36 98.7206 66.552C99.3446 66.728 99.9286 67.008 100.473 67.392V66.6C100.329 66.456 100.089 66.28 99.7526 66.072C99.4166 65.864 98.9846 65.68 98.4566 65.52C97.9446 65.344 97.3286 65.256 96.6086 65.256C95.3286 65.256 94.3126 65.568 93.5606 66.192C92.8246 66.816 92.4566 67.664 92.4566 68.736C92.4566 69.52 92.6326 70.168 92.9846 70.68C93.3366 71.192 93.8006 71.584 94.3766 71.856C94.9526 72.112 95.5526 72.24 96.1766 72.24C96.8166 72.24 97.4486 72.104 98.0726 71.832C98.6966 71.56 99.2166 71.144 99.6326 70.584C100.049 70.024 100.257 69.312 100.257 68.448L99.9686 67.392C99.9686 68.208 99.8086 68.896 99.4886 69.456C99.1686 70.016 98.7446 70.44 98.2166 70.728C97.7046 71.016 97.1366 71.16 96.5126 71.16C96.0006 71.16 95.5286 71.072 95.0966 70.896C94.6806 70.704 94.3446 70.424 94.0886 70.056C93.8486 69.688 93.7286 69.232 93.7286 68.688ZM93.7766 62.976C93.9846 62.816 94.2406 62.648 94.5446 62.472C94.8646 62.296 95.2406 62.144 95.6726 62.016C96.1046 61.888 96.5926 61.824 97.1366 61.824C97.6646 61.824 98.1126 61.896 98.4806 62.04C98.8486 62.184 99.1366 62.376 99.3446 62.616C99.5686 62.856 99.7286 63.128 99.8246 63.432C99.9206 63.72 99.9686 64.024 99.9686 64.344V72H101.217V64.176C101.217 63.44 101.057 62.816 100.737 62.304C100.417 61.792 99.9606 61.4 99.3686 61.128C98.7766 60.856 98.0646 60.72 97.2326 60.72C96.2566 60.72 95.4326 60.872 94.7606 61.176C94.1046 61.464 93.5686 61.752 93.1526 62.04L93.7766 62.976ZM105.894 60.96H104.646V72H105.894V60.96ZM109.566 62.424L110.262 61.392C110.006 61.152 109.718 60.984 109.398 60.888C109.094 60.776 108.766 60.72 108.414 60.72C107.838 60.72 107.31 60.92 106.83 61.32C106.366 61.72 105.998 62.264 105.726 62.952C105.454 63.624 105.318 64.4 105.318 65.28H105.894C105.894 64.656 105.966 64.088 106.11 63.576C106.254 63.064 106.486 62.656 106.806 62.352C107.142 62.048 107.582 61.896 108.126 61.896C108.414 61.896 108.662 61.944 108.87 62.04C109.094 62.12 109.326 62.248 109.566 62.424ZM112.26 53.28V72H113.508V53.28H112.26ZM118.236 60.96L113.052 65.52L118.716 72H120.3L114.636 65.52L119.844 60.96H118.236ZM126.095 72.24C127.199 72.24 128.159 72.016 128.975 71.568C129.807 71.104 130.535 70.392 131.159 69.432L130.151 68.784C129.655 69.568 129.087 70.144 128.447 70.512C127.823 70.88 127.087 71.064 126.239 71.064C125.439 71.064 124.735 70.872 124.127 70.488C123.535 70.104 123.071 69.56 122.735 68.856C122.415 68.152 122.255 67.328 122.255 66.384C122.255 65.456 122.423 64.656 122.759 63.984C123.095 63.296 123.559 62.768 124.151 62.4C124.759 62.016 125.471 61.824 126.287 61.824C126.991 61.824 127.623 61.992 128.183 62.328C128.743 62.664 129.183 63.128 129.503 63.72C129.839 64.312 130.007 64.984 130.007 65.736C130.007 65.864 129.983 66 129.935 66.144C129.903 66.272 129.871 66.376 129.839 66.456L130.367 65.712H121.775V66.792H131.303C131.319 66.712 131.327 66.616 131.327 66.504C131.343 66.392 131.351 66.288 131.351 66.192C131.351 65.12 131.135 64.176 130.703 63.36C130.287 62.528 129.695 61.88 128.927 61.416C128.175 60.952 127.295 60.72 126.287 60.72C125.247 60.72 124.327 60.968 123.527 61.464C122.727 61.944 122.103 62.616 121.655 63.48C121.207 64.344 120.983 65.336 120.983 66.456C120.983 67.576 121.199 68.576 121.631 69.456C122.079 70.32 122.687 71 123.455 71.496C124.223 71.992 125.103 72.24 126.095 72.24ZM132.497 60.96V62.136H137.345V60.96H132.497ZM134.297 57.12V72H135.545V57.12H134.297ZM140.579 77.28V60.96H139.331V77.28H140.579ZM150.011 66.48C150.011 65.28 149.771 64.256 149.291 63.408C148.827 62.544 148.187 61.88 147.371 61.416C146.571 60.952 145.675 60.72 144.683 60.72C143.755 60.72 142.939 60.976 142.235 61.488C141.531 61.984 140.979 62.664 140.579 63.528C140.195 64.392 140.003 65.376 140.003 66.48C140.003 67.568 140.195 68.552 140.579 69.432C140.979 70.296 141.531 70.984 142.235 71.496C142.939 71.992 143.755 72.24 144.683 72.24C145.675 72.24 146.571 72.008 147.371 71.544C148.187 71.08 148.827 70.416 149.291 69.552C149.771 68.688 150.011 67.664 150.011 66.48ZM148.763 66.48C148.763 67.44 148.571 68.264 148.187 68.952C147.803 69.64 147.291 70.168 146.651 70.536C146.011 70.888 145.299 71.064 144.515 71.064C143.843 71.064 143.203 70.864 142.595 70.464C141.987 70.064 141.499 69.52 141.131 68.832C140.763 68.144 140.579 67.36 140.579 66.48C140.579 65.6 140.763 64.816 141.131 64.128C141.499 63.44 141.987 62.896 142.595 62.496C143.203 62.096 143.843 61.896 144.515 61.896C145.299 61.896 146.011 62.08 146.651 62.448C147.291 62.8 147.803 63.32 148.187 64.008C148.571 64.696 148.763 65.52 148.763 66.48ZM152.834 53.28V72H154.082V53.28H152.834ZM158.065 68.688C158.065 68.128 158.193 67.672 158.449 67.32C158.705 66.968 159.057 66.704 159.505 66.528C159.969 66.352 160.513 66.264 161.137 66.264C161.809 66.264 162.449 66.36 163.057 66.552C163.681 66.728 164.265 67.008 164.809 67.392V66.6C164.665 66.456 164.425 66.28 164.089 66.072C163.753 65.864 163.321 65.68 162.793 65.52C162.281 65.344 161.665 65.256 160.945 65.256C159.665 65.256 158.649 65.568 157.897 66.192C157.161 66.816 156.793 67.664 156.793 68.736C156.793 69.52 156.969 70.168 157.321 70.68C157.673 71.192 158.137 71.584 158.713 71.856C159.289 72.112 159.889 72.24 160.513 72.24C161.153 72.24 161.785 72.104 162.409 71.832C163.033 71.56 163.553 71.144 163.969 70.584C164.385 70.024 164.593 69.312 164.593 68.448L164.305 67.392C164.305 68.208 164.145 68.896 163.825 69.456C163.505 70.016 163.081 70.44 162.553 70.728C162.041 71.016 161.473 71.16 160.849 71.16C160.337 71.16 159.865 71.072 159.433 70.896C159.017 70.704 158.681 70.424 158.425 70.056C158.185 69.688 158.065 69.232 158.065 68.688ZM158.113 62.976C158.321 62.816 158.577 62.648 158.881 62.472C159.201 62.296 159.577 62.144 160.009 62.016C160.441 61.888 160.929 61.824 161.473 61.824C162.001 61.824 162.449 61.896 162.817 62.04C163.185 62.184 163.473 62.376 163.681 62.616C163.905 62.856 164.065 63.128 164.161 63.432C164.257 63.72 164.305 64.024 164.305 64.344V72H165.553V64.176C165.553 63.44 165.393 62.816 165.073 62.304C164.753 61.792 164.297 61.4 163.705 61.128C163.113 60.856 162.401 60.72 161.569 60.72C160.593 60.72 159.769 60.872 159.097 61.176C158.441 61.464 157.905 61.752 157.489 62.04L158.113 62.976ZM169.174 66.48C169.174 65.584 169.366 64.792 169.75 64.104C170.134 63.416 170.654 62.88 171.31 62.496C171.982 62.096 172.734 61.896 173.566 61.896C174.158 61.896 174.71 61.984 175.222 62.16C175.734 62.336 176.174 62.56 176.542 62.832C176.926 63.104 177.198 63.392 177.358 63.696V62.136C177.022 61.752 176.502 61.424 175.798 61.152C175.11 60.864 174.366 60.72 173.566 60.72C172.494 60.72 171.534 60.968 170.686 61.464C169.838 61.96 169.158 62.64 168.646 63.504C168.15 64.368 167.902 65.36 167.902 66.48C167.902 67.584 168.15 68.576 168.646 69.456C169.158 70.32 169.838 71 170.686 71.496C171.534 71.992 172.494 72.24 173.566 72.24C174.366 72.24 175.11 72.104 175.798 71.832C176.502 71.56 177.022 71.224 177.358 70.824V69.264C177.198 69.552 176.926 69.84 176.542 70.128C176.174 70.4 175.734 70.624 175.222 70.8C174.71 70.976 174.158 71.064 173.566 71.064C172.734 71.064 171.982 70.872 171.31 70.488C170.654 70.088 170.134 69.544 169.75 68.856C169.366 68.168 169.174 67.376 169.174 66.48ZM184.712 72.24C185.816 72.24 186.776 72.016 187.592 71.568C188.424 71.104 189.152 70.392 189.776 69.432L188.768 68.784C188.272 69.568 187.704 70.144 187.064 70.512C186.44 70.88 185.704 71.064 184.856 71.064C184.056 71.064 183.352 70.872 182.744 70.488C182.152 70.104 181.688 69.56 181.352 68.856C181.032 68.152 180.872 67.328 180.872 66.384C180.872 65.456 181.04 64.656 181.376 63.984C181.712 63.296 182.176 62.768 182.768 62.4C183.376 62.016 184.088 61.824 184.904 61.824C185.608 61.824 186.24 61.992 186.8 62.328C187.36 62.664 187.8 63.128 188.12 63.72C188.456 64.312 188.624 64.984 188.624 65.736C188.624 65.864 188.6 66 188.552 66.144C188.52 66.272 188.488 66.376 188.456 66.456L188.984 65.712H180.392V66.792H189.92C189.936 66.712 189.944 66.616 189.944 66.504C189.96 66.392 189.968 66.288 189.968 66.192C189.968 65.12 189.752 64.176 189.32 63.36C188.904 62.528 188.312 61.88 187.544 61.416C186.792 60.952 185.912 60.72 184.904 60.72C183.864 60.72 182.944 60.968 182.144 61.464C181.344 61.944 180.72 62.616 180.272 63.48C179.824 64.344 179.6 65.336 179.6 66.456C179.6 67.576 179.816 68.576 180.248 69.456C180.696 70.32 181.304 71 182.072 71.496C182.84 71.992 183.72 72.24 184.712 72.24Z" fill="#141414"/>
<path d="M202.816 72C202.408 72 202.061 71.8598 201.776 71.5795C201.49 71.2991 201.347 70.9587 201.347 70.5582C201.347 70.1577 201.49 69.8173 201.776 69.5369C202.061 69.2566 202.408 69.1164 202.816 69.1164C203.224 69.1164 203.571 69.2566 203.857 69.5369C204.143 69.8173 204.286 70.1577 204.286 70.5582C204.286 70.9587 204.143 71.2991 203.857 71.5795C203.571 71.8598 203.224 72 202.816 72V72ZM210.98 72C210.571 72 210.224 71.8598 209.939 71.5795C209.653 71.2991 209.51 70.9587 209.51 70.5582C209.51 70.1577 209.653 69.8173 209.939 69.5369C210.224 69.2566 210.571 69.1164 210.98 69.1164C211.388 69.1164 211.735 69.2566 212.02 69.5369C212.306 69.8173 212.449 70.1577 212.449 70.5582C212.449 70.9587 212.306 71.2991 212.02 71.5795C211.735 71.8598 211.388 72 210.98 72ZM201.755 58.7835L204 63.3492H209.878L212.429 58.7835H201.755ZM201.143 57.582H213.163C213.476 57.582 213.714 57.7222 213.878 58.0025C214.041 58.2829 214.041 58.5632 213.878 58.8436L211.122 63.7096C210.973 63.9633 210.779 64.1669 210.541 64.3204C210.303 64.4739 210.041 64.5507 209.755 64.5507H203.571L202.429 66.6333H212.449V67.8348H202.612C202.041 67.8348 201.629 67.6479 201.378 67.2741C201.126 66.9003 201.129 66.4798 201.388 66.0125L202.694 63.6496L199.592 57.2015H198V56H200.388L201.143 57.582ZM204 63.3492H209.878H204Z" fill="black"/>
</svg>
