<svg width="141" height="64" viewBox="0 0 141 64" fill="none" xmlns="http://www.w3.org/2000/svg">
<path d="M29.6239 21.3H18.9399V18.46H33.5344C33.4877 20.5618 33.1456 22.5654 32.5099 24.4729C31.8254 26.4949 30.8159 28.2952 29.4817 29.8777C28.154 31.4523 26.5164 32.7052 24.5623 33.6359C22.6553 34.5275 20.4582 34.98 17.9599 34.98C15.5873 34.98 13.396 34.5746 11.3808 33.769C9.36108 32.9296 7.61016 31.7666 6.12327 30.2802C4.63592 28.7614 3.472 26.9781 2.63194 24.9257C1.8259 22.8784 1.41992 20.6383 1.41992 18.2C1.41992 15.7617 1.8259 13.5216 2.63193 11.4743C3.47198 9.42187 4.6355 7.65551 6.12148 6.16954L6.12149 6.16956L6.1251 6.16587C7.61148 4.64853 9.36073 3.48697 11.3776 2.68022L11.3776 2.68026L11.3837 2.67773C13.3982 1.84094 15.5884 1.41998 17.9599 1.41998C19.9964 1.41998 21.8489 1.68627 23.5218 2.21291L23.5243 2.21368C25.2312 2.74127 26.7454 3.51492 28.0715 4.53264L28.0715 4.53266L28.0759 4.53598C29.3263 5.47377 30.395 6.6224 31.2822 7.98563L29.1533 9.93711C28.0791 8.31284 26.6479 7.03101 24.8675 6.09493C22.8941 5.0253 20.586 4.49998 17.9599 4.49998C15.5094 4.49998 13.2775 5.08056 11.276 6.24809C9.27872 7.41316 7.68155 9.02854 6.48752 11.0849L6.48624 11.0871C5.31604 13.1266 4.73992 15.5033 4.73992 18.2C4.73992 20.8661 5.31662 23.2409 6.48451 25.3098L6.48448 25.3098L6.48753 25.3151C7.68155 27.3714 9.27872 28.9868 11.276 30.1519C13.2775 31.3194 15.5094 31.9 17.9599 31.9C19.6716 31.9 21.2193 31.6531 22.5957 31.1495L22.5957 31.1496L22.6019 31.1472C24.0006 30.6144 25.2095 29.8777 26.2211 28.9335C27.2202 28.001 28.0377 26.934 28.6716 25.7341C29.3343 24.5402 29.8145 23.2639 30.1123 21.9072L30.2456 21.3H29.6239ZM66.8427 21.3H56.1587V18.46H70.7532C70.7065 20.5616 70.3645 22.5651 69.7288 24.4726C69.0443 26.4947 68.0348 28.2951 66.7005 29.8777C65.3728 31.4523 63.7352 32.7052 61.7811 33.6359C59.8741 34.5275 57.677 34.98 55.1787 34.98C52.8061 34.98 50.6148 34.5746 48.5996 33.769C46.5798 32.9296 44.8289 31.7666 43.342 30.2801C41.8547 28.7613 40.6908 26.9781 39.8506 24.9256C39.0447 22.8784 38.6387 20.6383 38.6387 18.2C38.6387 15.7617 39.0447 13.5216 39.8506 11.4743C40.6908 9.42188 41.8543 7.65551 43.3403 6.16956L43.3439 6.16587C44.8303 4.64853 46.5795 3.48697 48.5964 2.68022L48.5964 2.68026L48.6025 2.67773C50.617 1.84094 52.8073 1.41998 55.1787 1.41998C57.2152 1.41998 59.0677 1.68627 60.7405 2.21291L60.743 2.21369C62.45 2.74127 63.9642 3.51493 65.2903 4.53266L65.2947 4.53598C66.5451 5.47377 67.6138 6.6224 68.501 7.98563L66.3721 9.93711C65.2979 8.31282 63.8667 7.03098 62.0862 6.0949C60.1128 5.02529 57.8047 4.49998 55.1787 4.49998C52.7282 4.49998 50.4963 5.08056 48.4948 6.24809C46.4975 7.41316 44.9004 9.02854 43.7063 11.0849L43.705 11.0871C42.5348 13.1266 41.9587 15.5033 41.9587 18.2C41.9587 20.8661 42.5354 23.2409 43.7033 25.3098L43.7033 25.3098L43.7063 25.3151C44.9004 27.3714 46.4975 28.9868 48.4948 30.1519C50.4963 31.3194 52.7282 31.9 55.1787 31.9C56.8904 31.9 58.4381 31.6531 59.8145 31.1495L59.8145 31.1496L59.8207 31.1472C61.2194 30.6144 62.4283 29.8777 63.4399 28.9335C64.439 28.001 65.2565 26.934 65.8904 25.7342C66.5531 24.5402 67.0333 23.264 67.3311 21.9072L67.4644 21.3H66.8427ZM79.0334 18.68V19.18H79.5334H80.8574V34.5H77.7774V1.89998H80.8574V14.34H79.5334H79.0334V14.84V18.68ZM80.8574 15.34V18.18H80.0334V15.34H80.8574ZM81.8574 18.18V15.34H99.3379V18.18H81.8574ZM100.338 18.18V15.34H102.074V18.18H100.338ZM100.338 34.5V19.18H102.574H103.074V18.68V14.84V14.34H102.574H100.338V1.89998H103.418V34.5H100.338Z" fill="#1B1B1B" stroke="black"/>
<mask id="path-2-inside-1_24_8" fill="white">
<path d="M3.76 45.424L9.664 56.776L15.568 45.424L17.008 58.72H18.328L16.384 41.272L9.664 54.184L2.944 41.272L1 58.72H2.32L3.76 45.424ZM21.5766 55.408C21.5766 54.848 21.7046 54.392 21.9606 54.04C22.2166 53.688 22.5686 53.424 23.0166 53.248C23.4806 53.072 24.0246 52.984 24.6486 52.984C25.3206 52.984 25.9606 53.08 26.5686 53.272C27.1926 53.448 27.7766 53.728 28.321 54.112V53.32C28.177 53.176 27.937 53 27.6006 52.792C27.2646 52.584 26.8326 52.4 26.3046 52.24C25.7926 52.064 25.1766 51.976 24.4566 51.976C23.1766 51.976 22.1606 52.288 21.4086 52.912C20.6726 53.536 20.3046 54.384 20.3046 55.456C20.3046 56.24 20.4806 56.888 20.8326 57.4C21.1846 57.912 21.6486 58.304 22.2246 58.576C22.8006 58.832 23.4006 58.96 24.0246 58.96C24.6646 58.96 25.2966 58.824 25.9206 58.552C26.5446 58.28 27.0646 57.864 27.4806 57.304C27.897 56.744 28.105 56.032 28.105 55.168L27.8166 54.112C27.8166 54.928 27.6566 55.616 27.3366 56.176C27.0166 56.736 26.5926 57.16 26.0646 57.448C25.5526 57.736 24.9846 57.88 24.3606 57.88C23.8486 57.88 23.3766 57.792 22.9446 57.616C22.5286 57.424 22.1926 57.144 21.9366 56.776C21.6966 56.408 21.5766 55.952 21.5766 55.408ZM21.6246 49.696C21.8326 49.536 22.0886 49.368 22.3926 49.192C22.7126 49.016 23.0886 48.864 23.5206 48.736C23.9526 48.608 24.4406 48.544 24.9846 48.544C25.5126 48.544 25.9606 48.616 26.3286 48.76C26.6966 48.904 26.9846 49.096 27.1926 49.336C27.4166 49.576 27.5766 49.848 27.6726 50.152C27.7686 50.44 27.8166 50.744 27.8166 51.064V58.72H29.065V50.896C29.065 50.16 28.905 49.536 28.585 49.024C28.265 48.512 27.8086 48.12 27.2166 47.848C26.6246 47.576 25.9126 47.44 25.0806 47.44C24.1046 47.44 23.2806 47.592 22.6086 47.896C21.9526 48.184 21.4166 48.472 21.0006 48.76L21.6246 49.696ZM33.742 47.68H32.494V58.72H33.742V47.68ZM37.414 49.144L38.11 48.112C37.854 47.872 37.566 47.704 37.246 47.608C36.942 47.496 36.614 47.44 36.262 47.44C35.686 47.44 35.158 47.64 34.678 48.04C34.214 48.44 33.846 48.984 33.574 49.672C33.302 50.344 33.166 51.12 33.166 52H33.742C33.742 51.376 33.814 50.808 33.958 50.296C34.102 49.784 34.334 49.376 34.654 49.072C34.99 48.768 35.43 48.616 35.974 48.616C36.262 48.616 36.51 48.664 36.718 48.76C36.942 48.84 37.174 48.968 37.414 49.144ZM40.108 40V58.72H41.356V40H40.108ZM46.084 47.68L40.9 52.24L46.564 58.72H48.148L42.484 52.24L47.692 47.68H46.084ZM53.943 58.96C55.047 58.96 56.007 58.736 56.823 58.288C57.655 57.824 58.383 57.112 59.007 56.152L57.999 55.504C57.503 56.288 56.935 56.864 56.295 57.232C55.671 57.6 54.935 57.784 54.087 57.784C53.287 57.784 52.583 57.592 51.975 57.208C51.383 56.824 50.919 56.28 50.583 55.576C50.263 54.872 50.103 54.048 50.103 53.104C50.103 52.176 50.271 51.376 50.607 50.704C50.943 50.016 51.407 49.488 51.999 49.12C52.607 48.736 53.319 48.544 54.135 48.544C54.839 48.544 55.471 48.712 56.031 49.048C56.591 49.384 57.031 49.848 57.351 50.44C57.687 51.032 57.855 51.704 57.855 52.456C57.855 52.584 57.831 52.72 57.783 52.864C57.751 52.992 57.719 53.096 57.687 53.176L58.215 52.432H49.623V53.512H59.151C59.167 53.432 59.175 53.336 59.175 53.224C59.191 53.112 59.199 53.008 59.199 52.912C59.199 51.84 58.983 50.896 58.551 50.08C58.135 49.248 57.543 48.6 56.775 48.136C56.023 47.672 55.143 47.44 54.135 47.44C53.095 47.44 52.175 47.688 51.375 48.184C50.575 48.664 49.951 49.336 49.503 50.2C49.055 51.064 48.831 52.056 48.831 53.176C48.831 54.296 49.047 55.296 49.479 56.176C49.927 57.04 50.535 57.72 51.303 58.216C52.071 58.712 52.951 58.96 53.943 58.96ZM60.345 47.68V48.856H65.193V47.68H60.345ZM62.145 43.84V58.72H63.393V43.84H62.145ZM68.427 64V47.68H67.179V64H68.427ZM77.859 53.2C77.859 52 77.619 50.976 77.139 50.128C76.675 49.264 76.035 48.6 75.219 48.136C74.419 47.672 73.523 47.44 72.531 47.44C71.603 47.44 70.787 47.696 70.083 48.208C69.379 48.704 68.827 49.384 68.427 50.248C68.043 51.112 67.851 52.096 67.851 53.2C67.851 54.288 68.043 55.272 68.427 56.152C68.827 57.016 69.379 57.704 70.083 58.216C70.787 58.712 71.603 58.96 72.531 58.96C73.523 58.96 74.419 58.728 75.219 58.264C76.035 57.8 76.675 57.136 77.139 56.272C77.619 55.408 77.859 54.384 77.859 53.2ZM76.611 53.2C76.611 54.16 76.419 54.984 76.035 55.672C75.651 56.36 75.139 56.888 74.499 57.256C73.859 57.608 73.147 57.784 72.363 57.784C71.691 57.784 71.051 57.584 70.443 57.184C69.835 56.784 69.347 56.24 68.979 55.552C68.611 54.864 68.427 54.08 68.427 53.2C68.427 52.32 68.611 51.536 68.979 50.848C69.347 50.16 69.835 49.616 70.443 49.216C71.051 48.816 71.691 48.616 72.363 48.616C73.147 48.616 73.859 48.8 74.499 49.168C75.139 49.52 75.651 50.04 76.035 50.728C76.419 51.416 76.611 52.24 76.611 53.2ZM80.682 40V58.72H81.93V40H80.682ZM85.913 55.408C85.913 54.848 86.041 54.392 86.297 54.04C86.553 53.688 86.905 53.424 87.353 53.248C87.817 53.072 88.361 52.984 88.985 52.984C89.657 52.984 90.297 53.08 90.905 53.272C91.529 53.448 92.113 53.728 92.657 54.112V53.32C92.513 53.176 92.273 53 91.937 52.792C91.601 52.584 91.169 52.4 90.641 52.24C90.129 52.064 89.513 51.976 88.793 51.976C87.513 51.976 86.497 52.288 85.745 52.912C85.009 53.536 84.641 54.384 84.641 55.456C84.641 56.24 84.817 56.888 85.169 57.4C85.521 57.912 85.985 58.304 86.561 58.576C87.137 58.832 87.737 58.96 88.361 58.96C89.001 58.96 89.633 58.824 90.257 58.552C90.881 58.28 91.401 57.864 91.817 57.304C92.233 56.744 92.441 56.032 92.441 55.168L92.153 54.112C92.153 54.928 91.993 55.616 91.673 56.176C91.353 56.736 90.929 57.16 90.401 57.448C89.889 57.736 89.321 57.88 88.697 57.88C88.185 57.88 87.713 57.792 87.281 57.616C86.865 57.424 86.529 57.144 86.273 56.776C86.033 56.408 85.913 55.952 85.913 55.408ZM85.961 49.696C86.169 49.536 86.425 49.368 86.729 49.192C87.049 49.016 87.425 48.864 87.857 48.736C88.289 48.608 88.777 48.544 89.321 48.544C89.849 48.544 90.297 48.616 90.665 48.76C91.033 48.904 91.321 49.096 91.529 49.336C91.753 49.576 91.913 49.848 92.009 50.152C92.105 50.44 92.153 50.744 92.153 51.064V58.72H93.401V50.896C93.401 50.16 93.241 49.536 92.921 49.024C92.601 48.512 92.145 48.12 91.553 47.848C90.961 47.576 90.249 47.44 89.417 47.44C88.441 47.44 87.617 47.592 86.945 47.896C86.289 48.184 85.753 48.472 85.337 48.76L85.961 49.696ZM97.022 53.2C97.022 52.304 97.214 51.512 97.598 50.824C97.982 50.136 98.502 49.6 99.158 49.216C99.83 48.816 100.582 48.616 101.414 48.616C102.006 48.616 102.558 48.704 103.07 48.88C103.582 49.056 104.022 49.28 104.39 49.552C104.774 49.824 105.046 50.112 105.206 50.416V48.856C104.87 48.472 104.35 48.144 103.646 47.872C102.958 47.584 102.214 47.44 101.414 47.44C100.342 47.44 99.382 47.688 98.534 48.184C97.686 48.68 97.006 49.36 96.494 50.224C95.998 51.088 95.75 52.08 95.75 53.2C95.75 54.304 95.998 55.296 96.494 56.176C97.006 57.04 97.686 57.72 98.534 58.216C99.382 58.712 100.342 58.96 101.414 58.96C102.214 58.96 102.958 58.824 103.646 58.552C104.35 58.28 104.87 57.944 105.206 57.544V55.984C105.046 56.272 104.774 56.56 104.39 56.848C104.022 57.12 103.582 57.344 103.07 57.52C102.558 57.696 102.006 57.784 101.414 57.784C100.582 57.784 99.83 57.592 99.158 57.208C98.502 56.808 97.982 56.264 97.598 55.576C97.214 54.888 97.022 54.096 97.022 53.2ZM112.56 58.96C113.664 58.96 114.624 58.736 115.44 58.288C116.272 57.824 117 57.112 117.624 56.152L116.616 55.504C116.12 56.288 115.552 56.864 114.912 57.232C114.288 57.6 113.552 57.784 112.704 57.784C111.904 57.784 111.2 57.592 110.592 57.208C110 56.824 109.536 56.28 109.2 55.576C108.88 54.872 108.72 54.048 108.72 53.104C108.72 52.176 108.888 51.376 109.224 50.704C109.56 50.016 110.024 49.488 110.616 49.12C111.224 48.736 111.936 48.544 112.752 48.544C113.456 48.544 114.088 48.712 114.648 49.048C115.208 49.384 115.648 49.848 115.968 50.44C116.304 51.032 116.472 51.704 116.472 52.456C116.472 52.584 116.448 52.72 116.4 52.864C116.368 52.992 116.336 53.096 116.304 53.176L116.832 52.432H108.24V53.512H117.768C117.784 53.432 117.792 53.336 117.792 53.224C117.808 53.112 117.816 53.008 117.816 52.912C117.816 51.84 117.6 50.896 117.168 50.08C116.752 49.248 116.16 48.6 115.392 48.136C114.64 47.672 113.76 47.44 112.752 47.44C111.712 47.44 110.792 47.688 109.992 48.184C109.192 48.664 108.568 49.336 108.12 50.2C107.672 51.064 107.448 52.056 107.448 53.176C107.448 54.296 107.664 55.296 108.096 56.176C108.544 57.04 109.152 57.72 109.92 58.216C110.688 58.712 111.568 58.96 112.56 58.96Z"/>
</mask>
<path d="M3.76 45.424L9.664 56.776L15.568 45.424L17.008 58.72H18.328L16.384 41.272L9.664 54.184L2.944 41.272L1 58.72H2.32L3.76 45.424ZM21.5766 55.408C21.5766 54.848 21.7046 54.392 21.9606 54.04C22.2166 53.688 22.5686 53.424 23.0166 53.248C23.4806 53.072 24.0246 52.984 24.6486 52.984C25.3206 52.984 25.9606 53.08 26.5686 53.272C27.1926 53.448 27.7766 53.728 28.321 54.112V53.32C28.177 53.176 27.937 53 27.6006 52.792C27.2646 52.584 26.8326 52.4 26.3046 52.24C25.7926 52.064 25.1766 51.976 24.4566 51.976C23.1766 51.976 22.1606 52.288 21.4086 52.912C20.6726 53.536 20.3046 54.384 20.3046 55.456C20.3046 56.24 20.4806 56.888 20.8326 57.4C21.1846 57.912 21.6486 58.304 22.2246 58.576C22.8006 58.832 23.4006 58.96 24.0246 58.96C24.6646 58.96 25.2966 58.824 25.9206 58.552C26.5446 58.28 27.0646 57.864 27.4806 57.304C27.897 56.744 28.105 56.032 28.105 55.168L27.8166 54.112C27.8166 54.928 27.6566 55.616 27.3366 56.176C27.0166 56.736 26.5926 57.16 26.0646 57.448C25.5526 57.736 24.9846 57.88 24.3606 57.88C23.8486 57.88 23.3766 57.792 22.9446 57.616C22.5286 57.424 22.1926 57.144 21.9366 56.776C21.6966 56.408 21.5766 55.952 21.5766 55.408ZM21.6246 49.696C21.8326 49.536 22.0886 49.368 22.3926 49.192C22.7126 49.016 23.0886 48.864 23.5206 48.736C23.9526 48.608 24.4406 48.544 24.9846 48.544C25.5126 48.544 25.9606 48.616 26.3286 48.76C26.6966 48.904 26.9846 49.096 27.1926 49.336C27.4166 49.576 27.5766 49.848 27.6726 50.152C27.7686 50.44 27.8166 50.744 27.8166 51.064V58.72H29.065V50.896C29.065 50.16 28.905 49.536 28.585 49.024C28.265 48.512 27.8086 48.12 27.2166 47.848C26.6246 47.576 25.9126 47.44 25.0806 47.44C24.1046 47.44 23.2806 47.592 22.6086 47.896C21.9526 48.184 21.4166 48.472 21.0006 48.76L21.6246 49.696ZM33.742 47.68H32.494V58.72H33.742V47.68ZM37.414 49.144L38.11 48.112C37.854 47.872 37.566 47.704 37.246 47.608C36.942 47.496 36.614 47.44 36.262 47.44C35.686 47.44 35.158 47.64 34.678 48.04C34.214 48.44 33.846 48.984 33.574 49.672C33.302 50.344 33.166 51.12 33.166 52H33.742C33.742 51.376 33.814 50.808 33.958 50.296C34.102 49.784 34.334 49.376 34.654 49.072C34.99 48.768 35.43 48.616 35.974 48.616C36.262 48.616 36.51 48.664 36.718 48.76C36.942 48.84 37.174 48.968 37.414 49.144ZM40.108 40V58.72H41.356V40H40.108ZM46.084 47.68L40.9 52.24L46.564 58.72H48.148L42.484 52.24L47.692 47.68H46.084ZM53.943 58.96C55.047 58.96 56.007 58.736 56.823 58.288C57.655 57.824 58.383 57.112 59.007 56.152L57.999 55.504C57.503 56.288 56.935 56.864 56.295 57.232C55.671 57.6 54.935 57.784 54.087 57.784C53.287 57.784 52.583 57.592 51.975 57.208C51.383 56.824 50.919 56.28 50.583 55.576C50.263 54.872 50.103 54.048 50.103 53.104C50.103 52.176 50.271 51.376 50.607 50.704C50.943 50.016 51.407 49.488 51.999 49.12C52.607 48.736 53.319 48.544 54.135 48.544C54.839 48.544 55.471 48.712 56.031 49.048C56.591 49.384 57.031 49.848 57.351 50.44C57.687 51.032 57.855 51.704 57.855 52.456C57.855 52.584 57.831 52.72 57.783 52.864C57.751 52.992 57.719 53.096 57.687 53.176L58.215 52.432H49.623V53.512H59.151C59.167 53.432 59.175 53.336 59.175 53.224C59.191 53.112 59.199 53.008 59.199 52.912C59.199 51.84 58.983 50.896 58.551 50.08C58.135 49.248 57.543 48.6 56.775 48.136C56.023 47.672 55.143 47.44 54.135 47.44C53.095 47.44 52.175 47.688 51.375 48.184C50.575 48.664 49.951 49.336 49.503 50.2C49.055 51.064 48.831 52.056 48.831 53.176C48.831 54.296 49.047 55.296 49.479 56.176C49.927 57.04 50.535 57.72 51.303 58.216C52.071 58.712 52.951 58.96 53.943 58.96ZM60.345 47.68V48.856H65.193V47.68H60.345ZM62.145 43.84V58.72H63.393V43.84H62.145ZM68.427 64V47.68H67.179V64H68.427ZM77.859 53.2C77.859 52 77.619 50.976 77.139 50.128C76.675 49.264 76.035 48.6 75.219 48.136C74.419 47.672 73.523 47.44 72.531 47.44C71.603 47.44 70.787 47.696 70.083 48.208C69.379 48.704 68.827 49.384 68.427 50.248C68.043 51.112 67.851 52.096 67.851 53.2C67.851 54.288 68.043 55.272 68.427 56.152C68.827 57.016 69.379 57.704 70.083 58.216C70.787 58.712 71.603 58.96 72.531 58.96C73.523 58.96 74.419 58.728 75.219 58.264C76.035 57.8 76.675 57.136 77.139 56.272C77.619 55.408 77.859 54.384 77.859 53.2ZM76.611 53.2C76.611 54.16 76.419 54.984 76.035 55.672C75.651 56.36 75.139 56.888 74.499 57.256C73.859 57.608 73.147 57.784 72.363 57.784C71.691 57.784 71.051 57.584 70.443 57.184C69.835 56.784 69.347 56.24 68.979 55.552C68.611 54.864 68.427 54.08 68.427 53.2C68.427 52.32 68.611 51.536 68.979 50.848C69.347 50.16 69.835 49.616 70.443 49.216C71.051 48.816 71.691 48.616 72.363 48.616C73.147 48.616 73.859 48.8 74.499 49.168C75.139 49.52 75.651 50.04 76.035 50.728C76.419 51.416 76.611 52.24 76.611 53.2ZM80.682 40V58.72H81.93V40H80.682ZM85.913 55.408C85.913 54.848 86.041 54.392 86.297 54.04C86.553 53.688 86.905 53.424 87.353 53.248C87.817 53.072 88.361 52.984 88.985 52.984C89.657 52.984 90.297 53.08 90.905 53.272C91.529 53.448 92.113 53.728 92.657 54.112V53.32C92.513 53.176 92.273 53 91.937 52.792C91.601 52.584 91.169 52.4 90.641 52.24C90.129 52.064 89.513 51.976 88.793 51.976C87.513 51.976 86.497 52.288 85.745 52.912C85.009 53.536 84.641 54.384 84.641 55.456C84.641 56.24 84.817 56.888 85.169 57.4C85.521 57.912 85.985 58.304 86.561 58.576C87.137 58.832 87.737 58.96 88.361 58.96C89.001 58.96 89.633 58.824 90.257 58.552C90.881 58.28 91.401 57.864 91.817 57.304C92.233 56.744 92.441 56.032 92.441 55.168L92.153 54.112C92.153 54.928 91.993 55.616 91.673 56.176C91.353 56.736 90.929 57.16 90.401 57.448C89.889 57.736 89.321 57.88 88.697 57.88C88.185 57.88 87.713 57.792 87.281 57.616C86.865 57.424 86.529 57.144 86.273 56.776C86.033 56.408 85.913 55.952 85.913 55.408ZM85.961 49.696C86.169 49.536 86.425 49.368 86.729 49.192C87.049 49.016 87.425 48.864 87.857 48.736C88.289 48.608 88.777 48.544 89.321 48.544C89.849 48.544 90.297 48.616 90.665 48.76C91.033 48.904 91.321 49.096 91.529 49.336C91.753 49.576 91.913 49.848 92.009 50.152C92.105 50.44 92.153 50.744 92.153 51.064V58.72H93.401V50.896C93.401 50.16 93.241 49.536 92.921 49.024C92.601 48.512 92.145 48.12 91.553 47.848C90.961 47.576 90.249 47.44 89.417 47.44C88.441 47.44 87.617 47.592 86.945 47.896C86.289 48.184 85.753 48.472 85.337 48.76L85.961 49.696ZM97.022 53.2C97.022 52.304 97.214 51.512 97.598 50.824C97.982 50.136 98.502 49.6 99.158 49.216C99.83 48.816 100.582 48.616 101.414 48.616C102.006 48.616 102.558 48.704 103.07 48.88C103.582 49.056 104.022 49.28 104.39 49.552C104.774 49.824 105.046 50.112 105.206 50.416V48.856C104.87 48.472 104.35 48.144 103.646 47.872C102.958 47.584 102.214 47.44 101.414 47.44C100.342 47.44 99.382 47.688 98.534 48.184C97.686 48.68 97.006 49.36 96.494 50.224C95.998 51.088 95.75 52.08 95.75 53.2C95.75 54.304 95.998 55.296 96.494 56.176C97.006 57.04 97.686 57.72 98.534 58.216C99.382 58.712 100.342 58.96 101.414 58.96C102.214 58.96 102.958 58.824 103.646 58.552C104.35 58.28 104.87 57.944 105.206 57.544V55.984C105.046 56.272 104.774 56.56 104.39 56.848C104.022 57.12 103.582 57.344 103.07 57.52C102.558 57.696 102.006 57.784 101.414 57.784C100.582 57.784 99.83 57.592 99.158 57.208C98.502 56.808 97.982 56.264 97.598 55.576C97.214 54.888 97.022 54.096 97.022 53.2ZM112.56 58.96C113.664 58.96 114.624 58.736 115.44 58.288C116.272 57.824 117 57.112 117.624 56.152L116.616 55.504C116.12 56.288 115.552 56.864 114.912 57.232C114.288 57.6 113.552 57.784 112.704 57.784C111.904 57.784 111.2 57.592 110.592 57.208C110 56.824 109.536 56.28 109.2 55.576C108.88 54.872 108.72 54.048 108.72 53.104C108.72 52.176 108.888 51.376 109.224 50.704C109.56 50.016 110.024 49.488 110.616 49.12C111.224 48.736 111.936 48.544 112.752 48.544C113.456 48.544 114.088 48.712 114.648 49.048C115.208 49.384 115.648 49.848 115.968 50.44C116.304 51.032 116.472 51.704 116.472 52.456C116.472 52.584 116.448 52.72 116.4 52.864C116.368 52.992 116.336 53.096 116.304 53.176L116.832 52.432H108.24V53.512H117.768C117.784 53.432 117.792 53.336 117.792 53.224C117.808 53.112 117.816 53.008 117.816 52.912C117.816 51.84 117.6 50.896 117.168 50.08C116.752 49.248 116.16 48.6 115.392 48.136C114.64 47.672 113.76 47.44 112.752 47.44C111.712 47.44 110.792 47.688 109.992 48.184C109.192 48.664 108.568 49.336 108.12 50.2C107.672 51.064 107.448 52.056 107.448 53.176C107.448 54.296 107.664 55.296 108.096 56.176C108.544 57.04 109.152 57.72 109.92 58.216C110.688 58.712 111.568 58.96 112.56 58.96Z" fill="#141414" stroke="black" stroke-width="2" mask="url(#path-2-inside-1_24_8)"/>
<path d="M129.126 61.2225L129.127 61.223C129.316 61.4091 129.536 61.5 129.816 61.5C130.096 61.5 130.316 61.4092 130.507 61.2225H129.126ZM129.126 61.2225C128.936 61.0361 128.847 60.8243 128.847 60.5582C128.847 60.2921 128.936 60.0803 129.126 59.8939L129.127 59.8934M129.126 61.2225L129.127 59.8934M129.127 59.8934C129.316 59.7073 129.536 59.6164 129.816 59.6164M129.127 59.8934L129.816 59.6164M129.816 59.6164C130.096 59.6164 130.316 59.7072 130.507 59.8939M129.816 59.6164L130.507 59.8939M130.507 59.8939C130.697 60.0803 130.786 60.2921 130.786 60.5582M130.507 59.8939L130.786 60.5582M130.786 60.5582C130.786 60.8243 130.697 61.036 130.507 61.2224L130.786 60.5582ZM137.29 61.223L137.289 61.2225C137.099 61.0361 137.01 60.8243 137.01 60.5582C137.01 60.2921 137.099 60.0803 137.289 59.8939L137.29 59.8934C137.479 59.7074 137.699 59.6164 137.98 59.6164C138.26 59.6164 138.48 59.7073 138.669 59.8934L138.67 59.8939C138.86 60.0803 138.949 60.2921 138.949 60.5582C138.949 60.8243 138.86 61.0361 138.67 61.2225L138.669 61.223C138.48 61.4091 138.26 61.5 137.98 61.5C137.699 61.5 137.479 61.409 137.29 61.223ZM128.755 48.2835H127.952L128.306 49.0041L130.551 53.5698L130.689 53.8492H131H136.878H137.171L137.314 53.5931L139.865 49.0274L140.281 48.2835H139.429H128.755ZM127.692 47.7974L127.828 48.082H128.143H140.163C140.29 48.082 140.368 48.1204 140.446 48.2544C140.518 48.3791 140.518 48.4675 140.446 48.5923L140.446 48.5923L140.443 48.5972L137.689 53.4595C137.579 53.6466 137.439 53.7911 137.27 53.9002C137.114 54.0011 136.946 54.0507 136.755 54.0507H130.571H130.275L130.133 54.3103L128.991 56.3929L128.727 56.873C128.702 56.8083 128.691 56.7454 128.691 56.6822C128.692 56.575 128.726 56.4347 128.825 56.2549L128.826 56.2544L130.132 53.8915L130.257 53.6655L130.145 53.4328L127.043 46.9847L126.906 46.7015H126.592H125.5V46.5H127.073L127.692 47.7974ZM129.429 57.1333H138.949V57.3348H129.612C129.272 57.3348 129.057 57.2559 128.915 57.1333H129.429Z" fill="black" stroke="black"/>
</svg>
